{"title":"Thor 2011 TS XViD V2 - DRTG - SAFCuk009","uid":6365625,"size":1378307506,"categoryP":"video","categoryS":"movies","magnet":"?xt=urn:btih:7c266a0b3877a4baebee92d11497abcf591d5829&amp;dn=Thor+2011+TS+XViD+V2+-+DRTG+-+SAFCuk009&amp;tr=udp%3A%2F%2Ftracker.openbittorrent.com%3A80&amp;tr=udp%3A%2F%2Fopen.demonii.com%3A1337&amp;tr=udp%3A%2F%2Ftracker.coppersurfer.tk%3A6969&amp;tr=udp%3A%2F%2Fexodus.desync.com%3A6969","seeders":1,"leechers":0,"uploader":"SAFCukO09","files":4,"time":1304497531,"description":"Format : AVI\nFormat/Info : Audio Video Interleave\nFile size : 1.28 GiB\nDuration : 1h 48mn\nOverall bit rate : 1 687 Kbps\nWriting application : VirtualDubMod 1.5.10.3 | www.virtualdub-fr.org || (build 2550/release)\nWriting library : VirtualDubMod build 2550/release\n\nVideo\nID : 0\nFormat : MPEG-4 Visual\nFormat profile : Advanced Simple@L5\nFormat settings, BVOP : Yes\nFormat settings, QPel : No\nFormat settings, GMC : No warppoints\nFormat settings, Matrix : Custom\nCodec ID : XVID\nCodec ID/Hint : XviD\nDuration : 1h 48mn\nBit rate : 1 549 Kbps\nWidth : 720 pixels\nHeight : 304 pixels\nDisplay aspect ratio : 2.35:1\nFrame rate : 25.000 fps\nColor space : YUV\nChroma subsampling : 4:2:0\nBit depth : 8 bits\nScan type : Progressive\nBits/(Pixel*Frame) : 0.283\nStream size : 1.18 GiB (92%)\nWriting library : XviD 1.2.1 (UTC 2008-12-04)\n\nAudio\nID : 1\nFormat : MPEG Audio\nFormat version : Version 1\nFormat profile : Layer 3\nCodec ID : 55\nCodec ID/Hint : MP3\nDuration : 1h 48mn\nBit rate mode : Constant\nBit rate : 128 Kbps\nChannel(s) : 2 channels\nSampling rate : 44.1 KHz\nStream size : 99.5 MiB (8%)\nAlignment : Split accross interleaves\nInterleave, duration : 40 ms (1.00 video frame)\nInterleave, preload duration : 500 ms\n\n\n\n &lt;a href=&quot;\nhttp://www.imdb.com/title/tt0800369/&quot; rel=&quot;nofollow&quot; target=&quot;_NEW&quot;&gt;\nhttp://www.imdb.com/title/tt0800369/&lt;/a&gt;\n\n\nSOURCES:\n\n\n\nVIDEO:Thor.2011.TRUEFRENCH.TS.MD.XviD-RESOLUTiON,Thor.iNT.CAM.XviD.Hungarian-G1-CiNEDUB ...Thanks\n\nAUDIO:IMAGiNE ..........................................Thanks\n\n\nGreetz to Imagine ,Flawl3ss,DiLLoN,BDK,NOiR,TOXiCiNK,THC,Ez,Rx,Boobyblue,TaRiQ786,LKRG\n","torrent":{"xt":"urn:btih:7c266a0b3877a4baebee92d11497abcf591d5829","amp;dn":"Thor+2011+TS+XViD+V2+-+DRTG+-+SAFCuk009","amp;tr":["udp%3A%2F%2Ftracker.openbittorrent.com%3A80","udp%3A%2F%2Fopen.demonii.com%3A1337","udp%3A%2F%2Ftracker.coppersurfer.tk%3A6969","udp%3A%2F%2Fexodus.desync.com%3A6969"],"infoHash":"7c266a0b3877a4baebee92d11497abcf591d5829","infoHashBuffer":{"type":"Buffer","data":[124,38,106,11,56,119,164,186,235,238,146,209,20,151,171,207,89,29,88,41]},"announce":[],"urlList":[]}}